<svg width="308" height="265" viewBox="0 0 308 265" fill="none" xmlns="http://www.w3.org/2000/svg">
<path d="M304.551 105.599L261.982 82.7902L295.981 59.8856C297.909 58.5875 299.001 56.3633 298.851 54.0449C298.701 51.7266 297.331 49.6618 295.251 48.6224L199.364 0.689961C197.337 -0.323278 194.928 -0.215247 192.997 0.979208L154 25.1227L115.004 0.979208C113.075 -0.215247 110.665 -0.323278 108.637 0.689961L12.7488 48.6233C10.669 49.6626 9.29874 51.7274 9.14882 54.0458C8.99889 56.3641 10.0911 58.5875 12.0192 59.8865L46.0185 82.7911L3.44899 105.6C1.3692 106.714 0.0521139 108.862 0.00155727 111.219C-0.049871 113.577 1.17569 115.778 3.20493 116.981L98.1772 173.23C99.2032 173.838 100.356 174.143 101.51 174.143C102.57 174.143 103.633 173.885 104.599 173.368L147.463 150.401V247.883L64.8814 206.517V168.821C64.8814 165.212 61.9552 162.286 58.3439 162.286C54.7326 162.286 51.8064 165.212 51.8064 168.821V210.551C51.8064 213.023 53.2037 215.285 55.4151 216.392L151.071 264.307C151.133 264.337 151.197 264.359 151.259 264.388C151.361 264.435 151.463 264.478 151.567 264.52C151.729 264.585 151.892 264.642 152.057 264.693C152.157 264.725 152.256 264.757 152.358 264.783C152.538 264.83 152.719 264.865 152.901 264.895C152.994 264.911 153.084 264.932 153.178 264.943C153.423 264.975 153.669 264.991 153.916 264.994C153.946 264.994 153.974 265 154.004 265C154.282 265 154.561 264.977 154.84 264.941C154.909 264.932 154.977 264.916 155.046 264.905C155.25 264.872 155.454 264.831 155.656 264.778C155.75 264.753 155.841 264.724 155.935 264.695C156.108 264.641 156.28 264.58 156.451 264.51C156.553 264.469 156.653 264.427 156.753 264.381C156.812 264.354 156.871 264.334 156.928 264.306L252.584 216.391C254.796 215.284 256.193 213.022 256.193 210.55V168.82C256.193 165.211 253.267 162.286 249.655 162.286C246.044 162.286 243.118 165.211 243.118 168.82V206.516L160.537 247.88V150.399L203.401 173.366C204.367 173.883 205.43 174.141 206.49 174.141C207.644 174.141 208.797 173.836 209.823 173.228L304.795 116.979C306.824 115.778 308.049 113.575 307.998 111.218C307.949 108.86 306.631 106.713 304.551 105.599ZM154 131.887L72.0743 83.3661L154 40.1958L235.927 83.3661L154 131.887ZM196.779 14.0102L279.388 55.3047L249.245 75.6105L167.151 32.3522L196.779 14.0102ZM111.221 14.0102L140.848 32.353L58.7544 75.6113L28.6122 55.3047L111.221 14.0102ZM101.67 160.107L19.8424 111.643L58.8669 90.7332L140.694 139.196L101.67 160.107ZM206.33 160.107L167.306 139.197L249.133 90.7341L288.158 111.644L206.33 160.107Z" fill="#FFF500"/>
</svg>
