<svg width="27" height="25" viewBox="0 0 27 25" fill="none" xmlns="http://www.w3.org/2000/svg">
<path d="M0 25V0H11.4238C15.7528 0 18.5747 0.125057 19.8894 0.375171C21.9096 0.750345 23.6011 1.5689 24.9639 2.83083C26.3267 4.0814 27.0082 5.70145 27.0082 7.69097C27.0082 9.22578 26.6154 10.5162 25.8297 11.562C25.044 12.608 24.042 13.4323 22.8235 14.0348C21.621 14.626 20.3944 15.0182 19.1438 15.2115C17.4443 15.4502 14.9832 15.5696 11.7604 15.5696H7.1188V25H0ZM7.1188 4.22919V11.3233H11.0149C13.8207 11.3233 15.6967 11.1926 16.6426 10.9311C17.5886 10.6696 18.3261 10.2604 18.8552 9.7033C19.4003 9.14618 19.6729 8.49817 19.6729 7.75922C19.6729 6.84971 19.2961 6.09937 18.5426 5.50819C17.789 4.91701 16.835 4.54752 15.6806 4.39973C14.8308 4.28604 13.1232 4.22919 10.5579 4.22919H7.1188Z" fill="#FFF500"/>
</svg>
