<svg width="47" height="47" viewBox="0 0 48 48" fill="none" xmlns="http://www.w3.org/2000/svg">
<path d="M36.0586 31.1857L28.7379 28.646L28.2413 24.6736C27.9108 25.1456 27.4373 25.513 26.8208 25.7051L27.2713 29.3101C27.3066 29.6007 27.5049 29.8467 27.7817 29.9404L35.5528 32.64C36.9364 33.1227 38.1493 34.8337 38.1493 36.3003V36.2895C38.1493 36.7138 38.4937 37.0582 38.918 37.0582C39.3407 37.0582 39.6851 36.7154 39.6866 36.2926C39.682 34.1727 38.0571 31.8851 36.0586 31.1857Z" fill="#FFF500"/>
<path d="M9.70903 37.0567C9.28473 37.0567 8.94037 36.7123 8.94037 36.288V36.2988C8.94037 34.1788 10.5684 31.8851 12.5669 31.1857L19.8876 28.6629L19.906 28.2325C19.9583 27.8113 20.3503 27.5176 20.7654 27.5653C21.1851 27.6176 21.4848 28.0019 21.4326 28.4246L21.3542 29.3301C21.3188 29.6207 21.119 29.8651 20.8423 29.9604L13.0727 32.6384C11.6906 33.1227 10.4777 34.8337 10.4777 36.2988V36.288C10.4777 36.7138 10.1333 37.0567 9.70903 37.0567Z" fill="#FFF500"/>
<path d="M24.3135 27.0749C20.0413 27.0749 17.8691 24.2401 17.8553 17.13C17.8522 15.3252 18.0444 13.4973 19.7416 11.7971C20.8223 10.7133 22.3596 10.1644 24.3135 10.1644C26.2675 10.1644 27.8048 10.7133 28.887 11.7986C30.5842 13.4973 30.7764 15.3267 30.7733 17.1315C30.7579 24.2401 28.5857 27.0749 24.3135 27.0749ZM24.3135 11.7017C22.7624 11.7017 21.6232 12.0892 20.8284 12.8839C19.8569 13.8571 19.3864 14.7287 19.3911 17.1285C19.4034 23.3054 21.0129 25.5391 24.312 25.5391C27.6111 25.5391 29.2206 23.3054 29.2329 17.1285C29.2375 14.7287 28.7671 13.8571 27.7955 12.8839C27.0038 12.0892 25.8647 11.7017 24.3135 11.7017Z" fill="#FFF500"/>
<path d="M24.3135 47C11.5984 47 1.25378 36.6554 1.25378 23.9403C1.25378 11.2252 11.5984 0.880598 24.3135 0.880598C37.0286 0.880598 47.3732 11.2252 47.3732 23.9403C47.3732 36.6554 37.0286 47 24.3135 47ZM24.3135 2.41791C12.4454 2.41791 2.7911 12.0722 2.7911 23.9403C2.7911 35.8084 12.4454 45.4627 24.3135 45.4627C36.1815 45.4627 45.8359 35.8084 45.8359 23.9403C45.8359 12.0722 36.1815 2.41791 24.3135 2.41791Z" fill="#FFF500"/>
<path d="M36.0586 31.1857L28.7379 28.646L28.2413 24.6736C27.9108 25.1456 27.4373 25.513 26.8208 25.7051L27.2713 29.3101C27.3066 29.6007 27.5049 29.8467 27.7817 29.9404L35.5528 32.64C36.9364 33.1227 38.1493 34.8337 38.1493 36.3003V36.2895C38.1493 36.7138 38.4937 37.0582 38.918 37.0582C39.3407 37.0582 39.6851 36.7154 39.6866 36.2926C39.682 34.1727 38.0571 31.8851 36.0586 31.1857Z" stroke="#FFF500"/>
<path d="M9.70903 37.0567C9.28473 37.0567 8.94037 36.7123 8.94037 36.288V36.2988C8.94037 34.1788 10.5684 31.8851 12.5669 31.1857L19.8876 28.6629L19.906 28.2325C19.9583 27.8113 20.3503 27.5176 20.7654 27.5653C21.1851 27.6176 21.4848 28.0019 21.4326 28.4246L21.3542 29.3301C21.3188 29.6207 21.119 29.8651 20.8423 29.9604L13.0727 32.6384C11.6906 33.1227 10.4777 34.8337 10.4777 36.2988V36.288C10.4777 36.7138 10.1333 37.0567 9.70903 37.0567Z" stroke="#FFF500"/>
<path d="M24.3135 27.0749C20.0413 27.0749 17.8691 24.2401 17.8553 17.13C17.8522 15.3252 18.0444 13.4973 19.7416 11.7971C20.8223 10.7133 22.3596 10.1644 24.3135 10.1644C26.2675 10.1644 27.8048 10.7133 28.887 11.7986C30.5842 13.4973 30.7764 15.3267 30.7733 17.1315C30.7579 24.2401 28.5857 27.0749 24.3135 27.0749ZM24.3135 11.7017C22.7624 11.7017 21.6232 12.0892 20.8284 12.8839C19.8569 13.8571 19.3864 14.7287 19.3911 17.1285C19.4034 23.3054 21.0129 25.5391 24.312 25.5391C27.6111 25.5391 29.2206 23.3054 29.2329 17.1285C29.2375 14.7287 28.7671 13.8571 27.7955 12.8839C27.0038 12.0892 25.8647 11.7017 24.3135 11.7017Z" stroke="#FFF500"/>
<path d="M24.3135 47C11.5984 47 1.25378 36.6554 1.25378 23.9403C1.25378 11.2252 11.5984 0.880598 24.3135 0.880598C37.0286 0.880598 47.3732 11.2252 47.3732 23.9403C47.3732 36.6554 37.0286 47 24.3135 47ZM24.3135 2.41791C12.4454 2.41791 2.7911 12.0722 2.7911 23.9403C2.7911 35.8084 12.4454 45.4627 24.3135 45.4627C36.1815 45.4627 45.8359 35.8084 45.8359 23.9403C45.8359 12.0722 36.1815 2.41791 24.3135 2.41791Z" stroke="#FFF500"/>
</svg>
