<svg width="47" height="47" viewBox="0 0 47 47" fill="none" xmlns="http://www.w3.org/2000/svg">
<path d="M22.4821 31.3194C21.6537 31.3194 20.9821 30.6478 20.9821 29.8194V24.8627H16.2582C15.4298 24.8627 14.7582 24.1911 14.7582 23.3627C14.7582 22.5343 15.4298 21.8627 16.2582 21.8627H20.9821V17.1388C20.9821 16.3104 21.6537 15.6388 22.4821 15.6388C23.3105 15.6388 23.9821 16.3104 23.9821 17.1388V21.8627H28.9388C29.7672 21.8627 30.4388 22.5343 30.4388 23.3627C30.4388 24.1911 29.7672 24.8627 28.9388 24.8627H23.9821V29.8194C23.9821 30.6478 23.3105 31.3194 22.4821 31.3194Z" fill="#FFF500"/>
<path fill-rule="evenodd" clip-rule="evenodd" d="M22.5986 35.009C28.9663 35.009 34.1284 29.8469 34.1284 23.4791C34.1284 17.1113 28.9663 11.9493 22.5986 11.9493C16.2308 11.9493 11.0687 17.1113 11.0687 23.4791C11.0687 29.8469 16.2308 35.009 22.5986 35.009ZM22.5986 32.009C27.3095 32.009 31.1284 28.19 31.1284 23.4791C31.1284 18.7682 27.3095 14.9493 22.5986 14.9493C17.8877 14.9493 14.0687 18.7682 14.0687 23.4791C14.0687 28.19 17.8877 32.009 22.5986 32.009Z" fill="#FFF500"/>
<path fill-rule="evenodd" clip-rule="evenodd" d="M20 0.880598C8.9543 0.880598 0 9.83491 0 20.8806V27C0 38.0457 8.95431 47 20 47H26.1194C37.1651 47 46.1194 38.0457 46.1194 27V20.8806C46.1194 9.8349 37.1651 0.880598 26.1194 0.880598H20ZM26.1194 3.8806H20C10.6112 3.8806 3 11.4918 3 20.8806V27C3 36.3888 10.6112 44 20 44H26.1194C35.5082 44 43.1194 36.3888 43.1194 27V20.8806C43.1194 11.4918 35.5082 3.8806 26.1194 3.8806Z" fill="#FFF500"/>
</svg>
