<svg width="36" height="36" viewBox="0 0 36 36" fill="none" xmlns="http://www.w3.org/2000/svg">
<path d="M19.5974 0C10.5529 0 3.19465 7.3582 3.19465 16.4026C3.19465 19.3469 3.9748 22.1121 5.33888 24.5031C6.10087 25.8388 6.0404 27.56 4.95305 28.6474L1.19982 32.4006C0.537181 33.0632 0.537176 34.1376 1.19982 34.8002C1.86245 35.4628 2.9368 35.4628 3.59943 34.8002L7.35268 31.0469C8.44003 29.9596 10.1613 29.8991 11.4969 30.6611C13.8879 32.0252 16.6531 32.8054 19.5973 32.8054C28.6418 32.8054 36 25.4471 36 16.4026C36 7.3582 28.6418 0 19.5974 0ZM19.5974 29.4116C12.4242 29.4116 6.58835 23.5758 6.58835 16.4026C6.58835 9.2295 12.4241 3.39363 19.5974 3.39363C26.7706 3.39363 32.6064 9.2295 32.6064 16.4026C32.6064 23.5758 26.7705 29.4116 19.5974 29.4116Z" fill="black"/>
</svg>
