<svg width="47" height="47" viewBox="0 0 47 49" fill="none" xmlns="http://www.w3.org/2000/svg">
<path d="M16.1997 40.194C14.1477 40.194 9.7599 40.194 5.02336 40.194C2.49969 40.194 1.86139 38.1584 2.99 36.4284L6.02336 30.117C6.96613 28.6718 8.3231 24.2031 8.3231 22.5873C8.3231 20.5845 8.3231 20.4706 8.3231 17.4955C9.14111 8.46909 23.1826 7.05727 24.6868 7.05727C26.1909 7.05727 40.232 8.46909 41.0504 17.4955C41.0504 20.4706 41.0504 20.5845 41.0504 22.5873C41.0504 24.2031 42.4045 28.6718 43.3472 30.117L46.3835 36.4284C47.512 38.1584 46.8706 40.194 44.3472 40.194H33.1738M16.1997 40.194C16.1997 45.398 19.5945 48 24.6868 48C29.779 48 33.1738 45.398 33.1738 40.194M16.1997 40.194C21.5028 40.194 33.1738 40.194 33.1738 40.194M24.6866 6.1434L24.6865 1.8806" stroke="#FFF500" stroke-width="3" stroke-linecap="round" stroke-linejoin="round"/>
</svg>
