<svg width="43" height="44" viewBox="0 0 43 44" fill="none" xmlns="http://www.w3.org/2000/svg">
<path fill-rule="evenodd" clip-rule="evenodd" d="M21.5 3.5C11.2827 3.5 3 11.7827 3 22C3 32.2173 11.2827 40.5 21.5 40.5C31.7173 40.5 40 32.2173 40 22C40 11.7827 31.7173 3.5 21.5 3.5ZM0 22C0 10.1259 9.62588 0.5 21.5 0.5C33.3741 0.5 43 10.1259 43 22C43 33.8741 33.3741 43.5 21.5 43.5C9.62588 43.5 0 33.8741 0 22ZM23 20.5V6C23 5.17157 22.3284 4.5 21.5 4.5C20.6716 4.5 20 5.17157 20 6V20.5V22V23.5H21.5H23H37.5C38.3284 23.5 39 22.8284 39 22C39 21.1716 38.3284 20.5 37.5 20.5H23Z" fill="#FFF500"/>
</svg>
