<svg width="48" height="43" viewBox="0 0 48 43" fill="none" xmlns="http://www.w3.org/2000/svg">
<path d="M40.927 8C41.439 4.86855 39.1913 2 36.2263 2H11.7738C8.80858 2 6.56115 4.86855 7.07291 8M29.0786 22.7791C30.3071 23.5292 30.3071 25.4708 29.0786 26.2209L21.6611 30.7495C20.4672 31.4783 19 30.5297 19 29.0287V19.9713C19 18.4704 20.4672 17.5216 21.6611 18.2505L29.0786 22.7791ZM2.84372 22.9446C1.86246 15.9847 1.37183 12.5048 3.45711 10.2524C5.54238 8 9.25468 8 16.6793 8H31.3207C38.7453 8 42.4576 8 44.543 10.2524C46.6281 12.5048 46.1375 15.9847 45.1563 22.9446L44.2257 29.5446C43.4562 35.0026 43.0716 37.7315 41.0978 39.3658C39.1239 41 36.2127 41 30.3901 41H17.6098C11.7874 41 8.87617 41 6.90235 39.3658C4.92853 37.7315 4.54377 35.0026 3.77426 29.5446L2.84372 22.9446Z" stroke="#FFF500" stroke-width="3"/>
</svg>
