<svg width="42" height="46" viewBox="0 0 42 46" fill="none" xmlns="http://www.w3.org/2000/svg">
<path d="M1.84713 19.1248L3.44142 18.9873C3.36759 18.1355 2.6343 17.4929 1.77815 17.5297C0.921976 17.5666 0.246887 18.2698 0.246887 19.1248H1.84713ZM38.623 23.0059L37.1177 31.6904L40.2715 32.2347L41.7768 23.55L38.623 23.0059ZM23.7064 42.5743H13.7878V45.7674H23.7064V42.5743ZM11.8433 40.7915L10.1104 20.7971L6.92182 21.0721L8.65469 41.0665L11.8433 40.7915ZM37.1177 31.6904C36.0364 37.9288 30.3982 42.5743 23.7064 42.5743V45.7674C31.8702 45.7674 38.9104 40.0858 40.2715 32.2347L37.1177 31.6904ZM23.7273 8.19586L22.3134 16.8056L25.4718 17.3219L26.8858 8.71216L23.7273 8.19586ZM10.7823 19.1491L13.8521 16.51L11.7628 14.0911L8.69307 16.7303L10.7823 19.1491ZM19.437 7.9232L20.452 4.01945L17.3541 3.21769L16.3391 7.12144L19.437 7.9232ZM21.985 3.25354L22.2944 3.35267L23.2733 0.312633L22.9639 0.213499L21.985 3.25354ZM17.8997 11.8484C18.5652 10.6052 19.0822 9.2884 19.437 7.9232L16.3391 7.12144C16.0482 8.24039 15.6241 9.32148 15.0767 10.3439L17.8997 11.8484ZM22.2944 3.35267C22.9481 3.56222 23.4124 4.06603 23.565 4.65302L26.663 3.85128C26.2246 2.1653 24.9312 0.843982 23.2733 0.312633L22.2944 3.35267ZM20.452 4.01945C20.5269 3.73205 20.7349 3.46794 21.0496 3.31661L19.6602 0.440101C18.5251 0.985776 17.6725 1.99304 17.3541 3.21769L20.452 4.01945ZM21.0496 3.31661C21.337 3.1784 21.6754 3.15434 21.985 3.25354L22.9639 0.213499C21.8764 -0.135078 20.6899 -0.0549318 19.6602 0.440101L21.0496 3.31661ZM25.6453 20.7213H36.7V17.5283H25.6453V20.7213ZM5.51448 42.9066L3.44142 18.9873L0.25284 19.2623L2.3259 43.1816L5.51448 42.9066ZM3.44737 43.1335V19.1248H0.246887V43.1335H3.44737ZM2.3259 43.1816C2.29776 42.857 2.55435 42.5743 2.8856 42.5743V45.7674C4.43457 45.7674 5.64764 44.4431 5.51448 42.9066L2.3259 43.1816ZM26.8858 8.71216C27.1514 7.09406 27.0757 5.43839 26.663 3.85128L23.565 4.65302C23.8658 5.80974 23.9211 7.01649 23.7273 8.19586L26.8858 8.71216ZM13.7878 42.5743C12.7767 42.5743 11.9308 41.8016 11.8433 40.7915L8.65469 41.0665C8.88504 43.7242 11.113 45.7674 13.7878 45.7674V42.5743ZM13.8521 16.51C15.3026 15.2629 16.8664 13.7785 17.8997 11.8484L15.0767 10.3439C14.3376 11.7242 13.1608 12.8892 11.7628 14.0911L13.8521 16.51ZM41.7768 23.55C42.3215 20.4069 39.899 17.5283 36.7 17.5283V20.7213C37.9089 20.7213 38.8302 21.8106 38.623 23.0059L41.7768 23.55ZM2.8856 42.5743C3.19756 42.5743 3.44737 42.8263 3.44737 43.1335H0.246887C0.246887 44.5866 1.42656 45.7674 2.8856 45.7674V42.5743ZM22.3134 16.8056C21.9769 18.8553 23.5605 20.7213 25.6453 20.7213V17.5283C25.5388 17.5283 25.4537 17.4321 25.4718 17.3219L22.3134 16.8056ZM10.1104 20.7971C10.0562 20.1713 10.3065 19.5582 10.7823 19.1491L8.69307 16.7303C7.43778 17.8095 6.77905 19.4252 6.92182 21.0721L10.1104 20.7971Z" fill="#FFF500"/>
</svg>
