<svg width="43" height="46" viewBox="0 0 43 46" fill="none" xmlns="http://www.w3.org/2000/svg">
<path d="M40.5002 26.6425L38.9059 26.7801C38.9797 27.6319 39.713 28.2745 40.5691 28.2376C41.4253 28.2007 42.1004 27.4975 42.1004 26.6425H40.5002ZM3.72425 22.7615L5.22955 14.0769L2.07579 13.5326L0.570496 22.2174L3.72425 22.7615ZM18.6409 3.19304H28.5595V-3.05176e-05H18.6409V3.19304ZM30.504 4.97584L32.2369 24.9702L35.4255 24.6952L33.6926 4.70081L30.504 4.97584ZM5.22955 14.0769C6.31088 7.83854 11.9491 3.19304 18.6409 3.19304V-3.05176e-05C10.4771 -3.05176e-05 3.43685 5.68151 2.07579 13.5326L5.22955 14.0769ZM18.6199 37.5715L20.0339 28.9617L16.8755 28.4455L15.4615 37.0552L18.6199 37.5715ZM31.565 26.6183L28.4952 29.2573L30.5844 31.6762L33.6542 29.0371L31.565 26.6183ZM22.9103 37.8441L21.8953 41.7479L24.9932 42.5496L26.0082 38.6459L22.9103 37.8441ZM20.3623 42.5138L20.0529 42.4147L19.074 45.4547L19.3834 45.5538L20.3623 42.5138ZM24.4476 33.9189C23.7821 35.1621 23.2651 36.4789 22.9103 37.8441L26.0082 38.6459C26.2991 37.5269 26.7232 36.4458 27.2706 35.4234L24.4476 33.9189ZM20.0529 42.4147C19.3992 42.2051 18.9349 41.7013 18.7823 41.1143L15.6842 41.9161C16.1227 43.602 17.4161 44.9234 19.074 45.4547L20.0529 42.4147ZM21.8953 41.7479C21.8204 42.0353 21.6124 42.2994 21.2977 42.4507L22.6871 45.3272C23.8222 44.7816 24.6748 43.7743 24.9932 42.5496L21.8953 41.7479ZM21.2977 42.4507C21.0103 42.5889 20.6719 42.613 20.3623 42.5138L19.3834 45.5538C20.4709 45.9024 21.6574 45.8223 22.6871 45.3272L21.2977 42.4507ZM16.702 25.046H5.64732V28.2391H16.702V25.046ZM36.8328 2.86075L38.9059 26.7801L42.0944 26.505L40.0214 2.58572L36.8328 2.86075ZM38.8999 2.63383V26.6425H42.1004V2.63383H38.8999ZM40.0214 2.58572C40.0495 2.91035 39.7929 3.19304 39.4617 3.19304V-3.05176e-05C37.9127 -3.05176e-05 36.6996 1.32424 36.8328 2.86075L40.0214 2.58572ZM15.4615 37.0552C15.1959 38.6733 15.2716 40.3289 15.6842 41.9161L18.7823 41.1143C18.4815 39.9576 18.4262 38.7508 18.6199 37.5715L15.4615 37.0552ZM28.5595 3.19304C29.5706 3.19304 30.4165 3.96576 30.504 4.97584L33.6926 4.70081C33.4623 2.04311 31.2343 -3.05176e-05 28.5595 -3.05176e-05V3.19304ZM28.4952 29.2573C27.0446 30.5045 25.4809 31.9889 24.4476 33.9189L27.2706 35.4234C28.0097 34.0431 29.1864 32.8781 30.5844 31.6762L28.4952 29.2573ZM0.570496 22.2174C0.0257759 25.3604 2.44833 28.2391 5.64732 28.2391V25.046C4.43839 25.046 3.51707 23.9567 3.72425 22.7615L0.570496 22.2174ZM39.4617 3.19304C39.1497 3.19304 38.8999 2.941 38.8999 2.63383H42.1004C42.1004 1.18077 40.9207 -3.05176e-05 39.4617 -3.05176e-05V3.19304ZM20.0339 28.9617C20.3704 26.912 18.7868 25.046 16.702 25.046V28.2391C16.8085 28.2391 16.8936 28.3353 16.8755 28.4455L20.0339 28.9617ZM32.2369 24.9702C32.2911 25.5961 32.0407 26.2091 31.565 26.6183L33.6542 29.0371C34.9095 27.9579 35.5682 26.3422 35.4255 24.6952L32.2369 24.9702Z" fill="#FFF500"/>
</svg>
