<svg width="150" height="25" viewBox="0 0 150 25" fill="none" xmlns="http://www.w3.org/2000/svg">
<path d="M0 25V0H11.4238C15.7528 0 18.5747 0.125057 19.8894 0.375171C21.9096 0.750345 23.6011 1.5689 24.9639 2.83083C26.3267 4.0814 27.0082 5.70145 27.0082 7.69097C27.0082 9.22578 26.6154 10.5162 25.8297 11.562C25.044 12.608 24.042 13.4323 22.8235 14.0348C21.621 14.626 20.3944 15.0182 19.1438 15.2115C17.4443 15.4502 14.9832 15.5696 11.7604 15.5696H7.1188V25H0ZM7.1188 4.22919V11.3233H11.0149C13.8207 11.3233 15.6967 11.1926 16.6426 10.9311C17.5886 10.6696 18.3261 10.2604 18.8552 9.7033C19.4003 9.14618 19.6729 8.49817 19.6729 7.75922C19.6729 6.84971 19.2961 6.09937 18.5426 5.50819C17.789 4.91701 16.835 4.54752 15.6806 4.39973C14.8308 4.28604 13.1232 4.22919 10.5579 4.22919H7.1188ZM32.8763 25V0H47.8595C51.6274 0 54.3611 0.227376 56.0606 0.682125C57.7762 1.12551 59.147 1.92133 60.1731 3.06958C61.1992 4.21783 61.7123 5.53093 61.7123 7.00884C61.7123 8.88475 60.9347 10.4366 59.3795 11.6644C57.8243 12.8809 55.4994 13.6482 52.405 13.9665C53.9442 14.6032 55.2108 15.3024 56.2048 16.0642C57.215 16.8258 58.5698 18.1787 60.2694 20.1228L64.5743 25H56.0606L50.9139 19.56C49.086 17.616 47.8355 16.3938 47.162 15.8936C46.4887 15.382 45.7752 15.0353 45.0216 14.8534C44.268 14.6601 43.0736 14.5634 41.4382 14.5634H39.9952V25H32.8763ZM39.9952 10.573H45.2621C48.6772 10.573 50.8096 10.4706 51.6594 10.266C52.5092 10.0614 53.1746 9.70898 53.6555 9.20875C54.1366 8.70852 54.3771 8.08322 54.3771 7.33291C54.3771 6.49159 54.0564 5.81514 53.4151 5.30355C52.7898 4.78058 51.8999 4.45088 50.7455 4.31446C50.1683 4.25762 48.4367 4.22919 45.5507 4.22919H39.9952V10.573ZM68.2299 25V0H75.3487V25H68.2299ZM82.0586 25V0H92.7128L99.11 17.0532L105.435 0H116.113V25H109.5V5.3206L102.501 25H95.6468L88.6723 5.3206V25H82.0586ZM123.184 25V0H149.327V4.22919H130.303V9.77148H148.004V13.9836H130.303V20.7878H150V25H123.184Z" fill="#FFF500"/>
</svg>
